<svg xmlns="http://www.w3.org/2000/svg" viewBox="0 0 688.13 716.89"><defs><style>.cls-1,.cls-4{fill:#fff;}.cls-1,.cls-3,.cls-6,.cls-8{stroke:#000;}.cls-1,.cls-3,.cls-5,.cls-6,.cls-7,.cls-8{stroke-miterlimit:10;}.cls-1,.cls-3,.cls-5,.cls-6{stroke-width:14px;}.cls-2,.cls-6{fill:#f93;}.cls-3,.cls-5{fill:none;}.cls-5{stroke:#242426;}.cls-7{stroke:#231f20;}.cls-7,.cls-8{stroke-linecap:round;}.cls-8{fill:#231f20;}</style></defs><title>Asset 3</title><g id="Layer_2" data-name="Layer 2"><g id="Layer_1-2" data-name="Layer 1"><ellipse class="cls-1" cx="344.07" cy="358.44" rx="337.07" ry="351.44"/><path class="cls-2" d="M242.74,217.54c-6,15.94,3.54,30.2,8.29,44.92,5.32,16.5-3.23,32.6-7.75,48.28a307.33,307.33,0,0,0-11.51,100.67l5.95-6c-14-.09-18.43-16.89-21-27.84a186.1,186.1,0,0,1-4.88-41.13,190.83,190.83,0,0,1,17.45-81.43l-10.88-4.58C206.77,291.27,195.31,332.4,192.76,375c-.3,4.9,6.9,8.2,10.16,4.21a157.38,157.38,0,0,0,30-57.74l-11.48-3.17L206,395.57l10.88-1.42A120.47,120.47,0,0,1,202.64,343c-.88-18.92,3.57-36.63,9.12-54.56,5.94-19.18,11.29-38.5,15.72-58.09q3.32-14.68,6-29.52c1.08-5.93.76-18,8.62-18.87,4.72-.49,9.92.6,14.6,1.11q8.14.87,16.27,1.94c11.57,1.53,23.09,3.42,34.57,5.56l-4.16-4.16c3.14,12.19,1.72,24.66-.3,36.91-2,11.8-3.92,23.5-4.7,35.46-1.65,25.52-1.32,50.68-6.55,75.87-2.5,12.06-5.64,24-8.84,35.88-3.07,11.45-5.89,23.21-10.95,34s-12.73,20-17.88,30.69a94.17,94.17,0,0,0-8.47,30.13c-2.9,24.92,2.95,50.22,9.95,74l8.74-6.72a69.24,69.24,0,0,1-28.76-37.45,68.42,68.42,0,0,1-3-24.29c.48-9.35,2.32-18.61,2.12-28-.2-9.69-3.12-18.22-7.38-26.82-.78-1.56-1.59-4.3-2.79-5.61l-.65-1.38L219,411.83a5.44,5.44,0,0,1,1.24,1.46c.45,2,2,4.24,2.69,6.26s1.4,4.19,2,6.32c4.66,17.54,3.39,36,4.12,53.95.58,14.35.82,41.93,19.61,45.11,4.75.81,8.05-2.62,7.32-7.32q-4.16-26.82-8.3-53.64c-1.36-8.78-2.87-17.54-4.08-26.34-.8-5.85-1.76-12.91,3.35-17l-10.16-4.21q.3,16.92-.28,33.82c-.24,7,9.62,7.74,11.69,1.58a308.64,308.64,0,0,1,38.57-76.95l-10.88-4.59c-10,27.61-29.44,51.12-35.31,80.33L252,453.77a340.24,340.24,0,0,1,25.43-89.86c2.19-5-2.63-11.7-8.14-8.15a85.68,85.68,0,0,0-31.46,35.72c-2.92,6.24,4,11.53,9.35,7.21a60.32,60.32,0,0,0,21.21-35.94c.71-4-2.69-9.14-7.33-7.32a55,55,0,0,0-24.24,18.11c-5.82,7.68-11.75,19.31-9.69,29.25,2.59,12.55,15.71,11.62,24.83,7.29,12.33-5.86,24.4-12.34,36.58-18.51l-8.14-2.13c1.6,2.28,2.46,4.44,1.92,7.25-1.25,6.44,7.23,10.6,10.88,4.58,15.43-25.48,8.77-55,7.31-82.95-.81-15.53.86-30.94,3.56-46.22,2.63-14.88,6.73-29.69,7.82-44.79.92-12.87-.82-28.59-10.89-37.82-9.47-8.68-24.76-10.09-37-10.88a121.17,121.17,0,0,0-22.85.7c-6.06.77-10.79,2.87-13.64,8.51-6.21,12.27-5.08,28-5.33,41.37A850,850,0,0,1,213.51,336H225c-3-10.28-1.55-20.84.07-31.23.79-5.12-5.73-11-9.95-5.79-10.8,13.2-12.09,29.91-9.42,46.22,3,18.57,11.9,35.9,11.63,55-.09,6.6,10.22,8.24,11.7,1.58,15.15-68.53,2-141.16,25.4-208.14,1.41-4-3.17-9-7.32-7.33a34.71,34.71,0,0,0-21,22.28c-1.72,5.51,6,10.34,9.95,5.8a44.38,44.38,0,0,1,35.58-15.47,39.69,39.69,0,0,1,9.79,1.68c4.51,1.37,6.28,3.08,6.65,7.82.7,9-.88,18.08-2.36,26.89a320.56,320.56,0,0,0-4.58,53.57c0,9.39.24,18.78.42,28.17.16,8.43.93,17.36-.75,25.68-1.82,9-7.56,15.71-13.3,22.6l-20.7,24.82,9.95,2.62c-7.27-23.5,3.94-46.83,9-69.56,4.3-19.38,5.41-41.58-7.32-58.17-2.46-3.2-8.1-4.46-10.28,0a156.8,156.8,0,0,0-15.69,58.4c-.54,7.71,11.15,7.51,11.9,0,2-20.48,4.09-41,6.33-61.42q1.61-14.85,3.39-29.68c1-8.45,1.79-18.5,7.79-25.1,5.5-6,13.6-6.88,18.69.07,5.31,7.26,4,17.43,3.17,25.8A401.25,401.25,0,0,1,274,289a409.81,409.81,0,0,1-20.61,61.82c-2,4.82,2.64,11.94,8.14,8.14a48.41,48.41,0,0,0,21.19-37.53c.19-3.33-2.89-5.79-6-5.95a46.27,46.27,0,0,0-29.88,8.84l8.74,6.72a217.34,217.34,0,0,0,7.06-61.51,209.74,209.74,0,0,0-3-29.79c-1.3-7.38-3.59-15.21-9-20.67a21.23,21.23,0,0,0-4.27-3.33,7.27,7.27,0,0,0-2.49-1.2c-2.23-.21-1.62,2.52-.55,3.78s2.76,2,3.86,3.26a24.37,24.37,0,0,1,3.59,5.45c3.29,6.64,4,14.43,4.33,21.72.43,9.46.32,18.94.84,28.41.29,5.14.67,10.29,1.14,15.42.46,4.87.44,10.33,1.88,15s5.08,7.18,9.69,7.72c2.62.31,3.24-.81,3.71,1.81a49.17,49.17,0,0,1,.29,7.29c.25,10.4-.16,21-5.31,30.29l11.09,3q.33-53.28,5.38-106.37c.79-8.3,2-16.59,2.58-24.9.43-6,.08-12.44-2.85-17.8s-9.22-9.79-15.53-8.26c-7.52,1.83-8.41,9.26-7.5,15.77a273.26,273.26,0,0,1,1.77,60.63h11.9c.69-17.15,1.64-34.31,2.07-51.47.16-6.06-.73-12.92-6.34-16.46-5.17-3.26-11.84-1.91-16.28,2-10.45,9.09-5.51,28.55-3,40.19a147,147,0,0,0,16.17,42c2.6,4.56,9.41,3.38,10.88-1.42,1-3.43,4.33-5.52,7.07-7.58a43,43,0,0,0,8.43-7.67c5.48-7,7.51-15.67,8.7-24.29,2.95-21.2,5.11-42.54,7.64-63.8.9-7.59-11-7.53-11.91,0-2.46,20.71-4.44,41.55-7.42,62.18-1.16,8-3,16.25-9.42,21.7-5.88,5-12.17,8.46-14.57,16.29L277,287a135,135,0,0,1-12.65-29.87c-2.86-10-6-22.13-4.81-32.63.37-3.21,4.1-8.76,4.75-2.74.61,5.64-.31,11.74-.54,17.39l-1.51,37.61c-.31,7.73,11.27,7.54,11.9,0A266.74,266.74,0,0,0,273,220.36c-.27-2.1-.63-4.2-.87-6.31a13.67,13.67,0,0,1-.22-2.3c-.94.4-.91.79.09,1.18a13.5,13.5,0,0,1,2.56,7.4c.58,8-1.2,16.25-2,24.14q-5.75,56.45-6.06,113.24c0,5.83,8.22,8.2,11.1,3,5.06-9.15,6.77-19.31,7-29.66.16-8.26,1.88-22.26-7.34-26.34-1.84-.82-4-.42-5.78-1.14-2.71-1.12-.56.74-1.48-1.45-.53-1.27-.38-3.37-.53-4.73q-.94-9.15-1.5-18.31c-.64-10.6-.44-21.21-1-31.79-.51-9-1.8-18.12-5.88-26.28-3.73-7.46-12.23-17.06-21.59-14.74a10.67,10.67,0,0,0-7.66,8.2c-1,5.49,2.51,8.58,7,10.75,8,3.9,9,14.49,10.14,22.35a203.24,203.24,0,0,1-4.76,80.3c-1.2,4.61,4.36,9.95,8.75,6.72a35.94,35.94,0,0,1,23.87-7.21l-6-6a35.74,35.74,0,0,1-15.28,27.25l8.14,8.15C281,316,293,272,296.12,227.66c.71-10.11-.4-20.68-7.06-28.77-5.75-7-14.78-10.38-23.61-7.74-21.54,6.43-22.32,32.74-24.44,51-3.13,27-5.84,54.12-8.54,81.21h11.9A141.48,141.48,0,0,1,258.44,271H248.16c12.5,16.3,9.26,37.95,4.27,56.47-6,22.28-14.27,45.37-7.14,68.42,1.22,3.94,6.94,6.24,10,2.63l20.69-24.82c5.86-7,12-14,15-22.8,3.2-9.26,2.78-19.4,2.62-29.05-.17-10.68-.49-21.36-.5-32.05a318.13,318.13,0,0,1,1.32-31.93c1.05-10.58,3.3-21,4.67-31.51,1.11-8.52,2.84-19.68-1.24-27.72s-13.68-10.29-21.85-11.3a55.7,55.7,0,0,0-48.3,18.58l10,5.79a21.89,21.89,0,0,1,12.65-14l-7.32-7.32C219.51,257.53,232.7,330,217.53,398.58l11.7,1.58c.25-17.6-6.44-33.79-10.51-50.62-3.31-13.67-4.71-30.56,4.8-42.19l-10-5.79c-1.95,12.53-3.66,25.14-.06,37.55,1.5,5.19,10.58,6.13,11.48,0,4.08-27.93,6.92-56,8.3-84.23.66-13.47.61-27,1.16-40.44a72.15,72.15,0,0,1,2.79-18.71c.84-2.66,1.35-4,4.17-4.52a65.25,65.25,0,0,1,10.26-.85,114.8,114.8,0,0,1,20.3.94c6,.84,12.73,1.77,18,4.82,10.85,6.22,10.86,22.22,9.86,33.06-1.26,13.7-5,27.17-7.39,40.7s-4.15,27.13-4.06,40.82c.19,27.82,10,59-5.45,84.56l10.88,4.59c1.14-5.87.36-11.45-3.12-16.42a6.13,6.13,0,0,0-8.14-2.14l-25.67,13c-3.82,1.94-7.62,4.17-11.57,5.84-3.14,1.32-6.76,2.88-6.62-1.73.41-13.68,13.61-26.81,25.55-31.48L257,359.58a50.28,50.28,0,0,1-18.15,30.69l9.35,7.22A74.5,74.5,0,0,1,275.34,366l-8.15-8.14a349.89,349.89,0,0,0-26.63,92.71c-1,7.37,9.93,10.83,11.48,3.16,5.84-29.06,25.35-52.76,35.31-80.33,2.42-6.7-7.27-9.82-10.88-4.58a319.79,319.79,0,0,0-39.77,79.8l11.69,1.58q.59-16.9.29-33.82c-.1-5.55-6.27-7.33-10.17-4.21-6,4.82-7.65,12.61-7.37,20,.35,9.06,2.44,18.19,3.83,27.14l9.51,61.45,7.32-7.33c-8.18-1.38-9.12-13.45-9.88-20-1.16-9.92-1.19-19.93-1.36-29.89a232.05,232.05,0,0,0-1.91-29.46c-1.34-9.21-3.52-19.94-8.75-27.84-2.07-3.13-5.52-5.89-9.4-6a8.43,8.43,0,0,0-8.62,7.94c-.34,4.05,2.24,8,4,11.48,2.57,5.16,5.15,10.24,6.27,15.94,2,10.4-.34,21.24-1.17,31.64a80.38,80.38,0,0,0,37.45,75.64c4.39,2.78,10.19-1.83,8.75-6.72-6.27-21.31-11.53-43.46-10-65.83a80,80,0,0,1,8-30.63c5.53-10.89,13.3-20.41,18.25-31.63,4.6-10.46,7.57-21.48,10.53-32.49,3.28-12.21,6.54-24.43,9.14-36.81,5.18-24.62,5.65-49.14,6.85-74.15.68-14.15,3-27.85,5.19-41.81,2.05-13.23,3.09-26.44-.29-39.55a5.85,5.85,0,0,0-4.16-4.16c-21.33-4-43.17-7.68-64.86-9-8.72-.52-16.53,2.61-20.1,11-3.88,9.13-4.35,20.21-6.31,29.9q-6.54,32.4-16,64.1c-6,20.08-12.62,39.79-12.8,61a133.72,133.72,0,0,0,16,64c2.32,4.34,9.87,3.6,10.88-1.43L233,321.43c1.5-7.44-9.41-10.63-11.48-3.17a143.16,143.16,0,0,1-27,52.49L204.66,375c2.49-41.46,13.89-81.57,25.22-121.32,1.8-6.31-8-10.84-10.88-4.59a204.12,204.12,0,0,0-18.89,94.48c.69,15.69,2.87,31.93,7.73,46.92,4.45,13.74,14.14,26.82,29.88,26.91,3.1,0,6.12-2.74,5.95-5.95a296.67,296.67,0,0,1,11.62-99.32c4.44-15,11.58-30,8.89-46.06-2.5-15-15.86-29.74-10-45.32,2.71-7.18-8.79-10.28-11.49-3.17Z"/><path class="cls-2" d="M433.76,218.89c5.89,15.53-7.39,30.41-9.95,45.32-2.75,16,4.47,31.09,8.89,46.06a297.19,297.19,0,0,1,11.62,99.32c-.17,3.2,2.86,6,5.95,6,15.73-.09,25.43-13.18,29.88-26.91,4.86-15,7-31.23,7.73-46.92A204.12,204.12,0,0,0,469,247.23c-2.87-6.19-12.7-1.79-10.88,4.59,11.33,39.75,22.73,79.86,25.22,121.32l10.16-4.21a143.24,143.24,0,0,1-27-52.49c-2.06-7.45-13-4.29-11.48,3.17l15.52,77.3c1,5,8.54,5.79,10.88,1.43A134.18,134.18,0,0,0,497.21,342c1.12-21.25-4.14-41.21-10.36-61.33-6.5-21-12.14-42.33-16.73-63.88-2.23-10.42-3.8-21-6-31.4-1.75-8.25-6.34-15.35-15.19-16.84-5.5-.92-11.2.08-16.69.66q-8.62.9-17.23,2-18.94,2.49-37.73,6a5.85,5.85,0,0,0-4.16,4.16c-6.16,23.86,2.42,47.81,4.29,71.64,2,25.2,1.21,50.31,5.77,75.3,2.21,12.12,5.18,24.08,8.32,36,3.06,11.59,5.9,23.36,10.09,34.61s10.4,20.83,16.65,30.94a83.19,83.19,0,0,1,11.65,30.25c4.19,24.8-2.06,50.47-9,74.17-1.44,4.88,4.35,9.51,8.75,6.72a82.12,82.12,0,0,0,33-41,77.66,77.66,0,0,0,4.82-25.9c.13-10.79-2.33-21.43-2.25-32.22a41.78,41.78,0,0,1,2.71-15c2-5.28,5.21-10.06,7.21-15.34,3.18-8.4-4.18-16.83-12.62-11.52-7.23,4.56-9.91,16.27-11.65,24-2.21,9.8-2.91,19.9-3.22,29.92-.34,11.4-.15,22.83-1.19,34.2-.64,7.09-1.12,21.87-10.22,23.41l7.32,7.33L453,457.51c1.39-8.95,3.48-18.08,3.83-27.14.28-7.37-1.36-15.16-7.37-20-3.91-3.12-10.07-1.32-10.17,4.21q-.3,16.92.29,33.82l11.69-1.58A319.79,319.79,0,0,0,411.52,367c-3.57-5.19-13.32-2.18-10.88,4.58,10,27.57,29.47,51.27,35.31,80.33,1.54,7.66,12.52,4.22,11.48-3.16a349.89,349.89,0,0,0-26.63-92.71l-8.15,8.14a74.41,74.41,0,0,1,27.18,31.45l9.35-7.22A50.32,50.32,0,0,1,431,357.76l-7.32,7.33c11.94,4.67,25.14,17.8,25.55,31.48.14,4.6-3.49,3.08-6.62,1.73-3.95-1.71-7.74-3.89-11.57-5.84l-25.67-13a6.14,6.14,0,0,0-8.14,2.14c-3.48,5-4.26,10.55-3.12,16.42L405,393.44c-13.73-22.68-7.32-50.2-5.8-75,1.69-27.4-4.68-53.73-9.56-80.46-2.18-12-4.32-27.45,2.72-38.32,6.39-9.87,22.94-10.51,33.44-11a107.3,107.3,0,0,1,19.05.58c2.91.39,4.19.5,5.38,3.26a41.49,41.49,0,0,1,2.46,10.27c1.94,13.28,1,27.1,1.56,40.48A875.09,875.09,0,0,0,463,337.29c.9,6.12,10,5.2,11.48,0,3.6-12.41,1.89-25-.06-37.55l-9.95,5.79c9.51,11.63,8.11,28.52,4.8,42.19-4.07,16.84-10.76,33-10.51,50.62l11.7-1.58c-15.17-68.56-2-141-25.41-208.15l-7.32,7.32a21.87,21.87,0,0,1,12.65,14l9.95-5.79a55.79,55.79,0,0,0-42.54-19c-7.7.1-17.19,1.47-23.35,6.44-7.41,6-6.92,16.76-6.31,25.36.75,10.47,3,20.74,4.52,31.11a253.2,253.2,0,0,1,2.23,32.2c.16,10.36-.08,20.72-.29,31.08s-.93,20.81.78,31,7.29,18.24,13.75,26.06c7.83,9.48,15.75,18.89,23.63,28.34,3,3.61,8.73,1.31,9.95-2.63,7.13-23.05-1.14-46.14-7.14-68.42-5-18.52-8.23-40.17,4.27-56.47H429.55a141.48,141.48,0,0,1,14.07,52.39h11.9c-2.41-24.12-4.81-48.23-7.53-72.31-1.25-11.1-2-22.52-4.34-33.45-2.06-9.46-6.59-18.39-15-23.68a22.08,22.08,0,0,0-25.64,1c-7.65,5.94-10.82,15.25-11.32,24.64-.58,10.77,1.46,21.95,3,32.58q2.4,16.51,6.12,32.81A426.37,426.37,0,0,0,424.36,355l8.14-8.15a35.74,35.74,0,0,1-15.28-27.25l-6,6a35.94,35.94,0,0,1,23.87,7.21c4.39,3.22,10-2.08,8.75-6.72a205.68,205.68,0,0,1-5.8-71.56c.82-8.57,1.14-20.9,6.93-27.94,2.62-3.19,6.93-3.48,9.51-6.69,2.84-3.53,2.23-8.58-.57-11.92-7.11-8.45-18-1.2-23.25,5.47-5.6,7.16-7.89,16-9,24.83-1.23,10.05-.83,20.23-1.23,30.32q-.33,8.7-1,17.38c-.24,2.89-.07,14.8-2.18,15.79-2.36,1.11-5.24.18-7.76,1.69A11.25,11.25,0,0,0,405,309c-2,4.86-1.53,11-1.59,16.14-.13,11.73,1.22,23.4,7,33.81,2.88,5.19,11.13,2.83,11.1-3q-.36-56.73-6.06-113.24c-.8-7.88-2.58-16.19-2-24.14a15,15,0,0,1,2.56-7.4c1-.39,1-.78.09-1.18l-.09,1.43c-.87,1.87-.73,5.12-1,7.18A266.74,266.74,0,0,0,413.85,275c.63,7.52,12.21,7.75,11.9,0l-1.47-36.62c-.23-5.81-1-11.87-.62-17.67.42-6.58,4.33-1.93,4.79,2,1.18,10.22-1.84,22-4.57,31.79A135.57,135.57,0,0,1,411,285.2l10.88,1.42c-2.32-7.57-8.27-11.1-14.05-15.85-6.76-5.56-8.73-13.82-9.94-22.14-3-20.63-5-41.47-7.42-62.18-.9-7.51-12.81-7.6-11.91,0,2.53,21.26,4.69,42.6,7.64,63.8,1.15,8.34,3.07,16.83,8.23,23.69a40.71,40.71,0,0,0,8.35,7.86c2.89,2.18,6.5,4.35,7.62,8,1.47,4.8,8.28,6,10.88,1.42a146.3,146.3,0,0,0,16.17-42c2.46-11.64,7.42-31.1-3-40.19-4.46-3.87-11.09-5.18-16.28-1.95-5.62,3.5-6.49,10.43-6.34,16.46.42,17.16,1.38,34.32,2.07,51.47h11.9a266.72,266.72,0,0,1,.69-52.55c.76-6.57,3.83-15.6-1.5-21.08-4.95-5.08-12.74-3.15-17.35,1.36-9.92,9.72-5.38,27-4.15,39q2.73,26.49,4.24,53.09,1.76,30.54,1.92,61.13l11.09-3c-4.46-8.05-5.37-17.08-5.36-26.14,0-2.21.05-4.42.13-6.63,0-1.36-.38-4.93.39-6.13.53-.82,2.14-.32,3.53-.49a11.61,11.61,0,0,0,6.67-2.75c3.2-2.92,3.54-7.31,4-11.33.6-5.12,1.07-10.26,1.47-15.4.77-10.19,1.06-20.38,1.23-30.59.13-7.82.39-15.74,2.63-23.29a28.15,28.15,0,0,1,4.58-9.36,19.42,19.42,0,0,1,3.42-3.42c1.76-1.32,2.23-.54,1.78-3.1s-1.09-1.68-2.93-.67c-15.08,8.26-15.49,31.73-16.51,46.57a215.83,215.83,0,0,0,6.69,69.06l8.74-6.72a46.27,46.27,0,0,0-29.88-8.84c-3.07.16-6.15,2.6-6,5.95a48.41,48.41,0,0,0,21.19,37.53c5.49,3.79,10.19-3.32,8.14-8.14a405.89,405.89,0,0,1-29.57-110.38c-1.07-8.92-3.12-19.33-.2-28.08,2.39-7.13,9-12.72,16.49-8.88,7.94,4,10.3,13.49,11.6,21.57,1.53,9.6,2.38,19.35,3.46,29,2.58,23.09,4.89,46.21,7.2,69.34.74,7.5,12.44,7.72,11.9,0a156.8,156.8,0,0,0-15.69-58.4c-2.18-4.46-7.82-3.2-10.28,0-12.73,16.59-11.62,38.79-7.32,58.17,5,22.73,16.26,46.06,9,69.56l9.95-2.62-17.56-21.06c-5.11-6.12-11.13-12.21-14.4-19.59-3.53-8-3-17.14-2.91-25.65.13-9.07.39-18.13.49-27.2.21-18-.39-35.93-3.25-53.73-1.49-9.29-3.41-18.54-3.71-28-.1-3.32-.67-7.91,1-10.91s6.73-3.87,9.91-4.48c15.25-2.95,31.14,3.2,41.16,14.83,3.9,4.54,11.67-.29,9.95-5.8a34.71,34.71,0,0,0-21-22.28c-4.15-1.65-8.73,3.3-7.32,7.33,23.38,67,10.25,139.61,25.4,208.14,1.46,6.59,11.79,5.09,11.7-1.58-.27-19.11,8.59-36.44,11.63-55,2.67-16.31,1.38-33-9.42-46.22-4.21-5.14-10.74.67-9.95,5.79,1.62,10.4,3.05,21,.07,31.23h11.48a849.55,849.55,0,0,1-8.44-94.9c-.47-14.61.58-29.82-2.66-44.18-1.16-5.15-2.8-10.86-7.1-14.27-5.45-4.32-14.32-4-20.91-4.18-13.6-.42-29.65.51-42,6.69-11.76,5.88-16.22,18.68-17.3,31-1.31,15,2.78,30,5.66,44.57,3,15.23,5.63,30.58,5.92,46.14.58,31.61-10.5,65.35,7.1,94.42,3.62,6,12.14,1.91,10.88-4.58-.55-2.83.33-5,1.92-7.25l-8.14,2.13c12,6.06,23.85,12.34,35.92,18.19,9.2,4.46,22.81,6,25.49-7,2-9.68-3.63-21.12-9.25-28.67a55.32,55.32,0,0,0-24.69-18.69c-4.63-1.82-8,3.36-7.32,7.32a60.3,60.3,0,0,0,21.21,35.94c5.27,4.29,12.29-.92,9.35-7.21a85.68,85.68,0,0,0-31.46-35.72c-5.51-3.55-10.33,3.19-8.14,8.15A340.24,340.24,0,0,1,436,452l11.48-3.16c-5.87-29.21-25.33-52.72-35.31-80.33l-10.88,4.59A308.64,308.64,0,0,1,439.81,450c2.05,6.11,11.94,5.44,11.69-1.58q-.57-16.91-.28-33.82l-10.16,4.21c5.1,4.09,4.15,11.16,3.35,17-1.21,8.8-2.72,17.56-4.08,26.34Q436.18,489,432,515.79c-.73,4.7,2.57,8.13,7.32,7.32,16.67-2.82,18.3-25.06,19.24-38.28,1.27-17.78-.29-35.89,2.89-53.51a86.1,86.1,0,0,1,3-12A51,51,0,0,1,467,413a16,16,0,0,0,1.25-2.34L469,410q-4-5.52-5.21-2.09c-1.16,1.23-1.92,3.92-2.71,5.5-1.06,2.13-2.11,4.27-3.06,6.45A52.35,52.35,0,0,0,454,433.25c-2.71,18.14,4.11,36.15,0,54.26a69.65,69.65,0,0,1-30.34,43.26l8.74,6.72c6.24-21.21,11.45-43.38,10.59-65.64A97.87,97.87,0,0,0,437.05,441c-4.27-11.27-11.32-20.72-17.32-31.06-5.83-10.05-9.26-21.07-12.33-32.22-3.31-12.06-6.57-24.15-9.38-36.33a270.09,270.09,0,0,1-6.3-37.68c-1-12.31-1.14-24.67-1.64-37a323.12,323.12,0,0,0-4.56-41.5c-2.3-13.45-4.4-27.15-.93-40.59l-4.16,4.16c19.67-3.66,39.53-6.65,59.47-8.37,2.91-.25,7.2-1,9.68,1,2.67,2.15,3,6.89,3.56,10,1.76,9.89,3.59,19.76,5.7,29.59q6.33,29.46,15.11,58.32c5.52,18.11,11.36,35.93,11.53,55.05a120.9,120.9,0,0,1-14.33,58L482,393.75l-15.52-77.31L455,319.61a157.38,157.38,0,0,0,30,57.74c3.24,4,10.46.72,10.16-4.21-2.55-42.55-14-83.69-25.64-124.48l-10.88,4.58a190.83,190.83,0,0,1,17.45,81.43,186.1,186.1,0,0,1-4.88,41.13c-2.58,10.95-7,27.75-21,27.84l6,5.95a307.33,307.33,0,0,0-11.51-100.67c-4.53-15.7-13-31.76-7.75-48.28,4.73-14.74,14.33-29,8.29-44.92-2.69-7.09-14.21-4-11.49,3.17Z"/><path class="cls-3" d="M348.29,174.31s-14.08.22-23.37-.15c-14.37-.58-46.46-10.14-69.26-7.61s-38.86-20.27-52.37-24.49S112.06,175,106.15,196.12s31.25,9.29,53.21-5.18,46.46-22.7,57.44-16.78-20.27,97.13-27.87,141.06,5.91,76,19.42,95.45,15.21,35.47,11.83,45.61-9.29,32.94,13.51,64.19,46.46,29.57,81.09,26.19,29.29-52.37,29.29-52.37-18.31-17.74-10.7-31.25-5.92-16.9-8.45-12.67-7.6,18.58-13.52,14.36-14.32-39.7,33-39.7"/><path class="cls-4" d="M412.06,281.36c28.76,36.25,50.47-12.09,47.21-33s-8.68-64.81-23.33-56S377,237.11,412.06,281.36Z"/><path class="cls-3" d="M344.36,174.35s10.95.19,19.45-.15c14.37-.58,46.46-10.14,69.26-7.61s38.86-20.27,52.37-24.49,91.23,32.94,97.14,54.06-31.25,9.29-53.21-5.18-46.46-22.7-57.44-16.78,20.27,97.13,27.87,141.06-5.91,76-19.43,95.45-15.2,35.47-11.82,45.61,9.29,32.94-13.52,64.19-46.45,29.57-81.09,26.19-29.28-52.37-29.28-52.37,18.3-17.74,10.7-31.25,5.91-16.9,8.45-12.67,7.6,18.58,13.51,14.36,14.33-39.7-33-39.7"/><path class="cls-5" d="M313.94,174.16s9.25,63.56,1.24,98.53a43.17,43.17,0,0,0-1.09,11c1.51,47.33,10.83,45.26,10.83,57.95,0,13.24-.85,39.42-27,62.23s-44.77,55.75-36.32,93.76S280.15,550,280.15,550"/><path class="cls-6" d="M300.45,547.92s5.92,31.68,43.91,30.84"/><path class="cls-6" d="M159.36,190.94s24,22.26,13.6,39c-21.11,33.79,5,71.8,16,85.32"/><circle class="cls-7" cx="277.7" cy="345.07" r="18.2"/><path class="cls-5" d="M374.79,174.2s-9.14,62.81-1.38,97.91a50,50,0,0,1,1.2,12.56c-1.6,46.41-10.8,44.44-10.8,57.05,0,13.24.84,39.42,27,62.23s44.77,55.75,36.32,93.76-18.58,52.37-18.58,52.37"/><path class="cls-3" d="M388.27,548s-5.91,31.68-43.91,30.84"/><path class="cls-6" d="M529.37,191s-24.05,22.26-13.61,39c21.12,33.79-5,71.8-16,85.32"/><circle class="cls-8" cx="411.03" cy="345.11" r="18.2"/></g></g></svg>