<svg xmlns="http://www.w3.org/2000/svg" viewBox="0 0 688.13 716.89"><defs><style>.cls-1{fill:#fff;}.cls-1,.cls-2,.cls-5{stroke:#000;}.cls-1,.cls-2,.cls-3,.cls-5{stroke-miterlimit:10;stroke-width:14px;}.cls-2,.cls-4{fill:#f7931e;}.cls-3{stroke:#231f20;stroke-linecap:round;}.cls-5{fill:none;}</style></defs><title>Asset 2</title><g id="Layer_2" data-name="Layer 2"><g id="Layer_1-2" data-name="Layer 1"><ellipse class="cls-1" cx="344.07" cy="358.44" rx="337.07" ry="351.44"/><path class="cls-2" d="M244.22,235.06s-87-112.88-120.75-84.83,12.82,174.58,12.82,174.58-28.41,109.88,28.33,157.05C232.08,538,280.65,594,344.07,594"/><path class="cls-2" d="M222.9,210.88S284.7,165,344.07,165"/><path class="cls-2" d="M224,274.33s-66.79-97.46-78.93-84.84,16.86,117.09,16.86,117.09S201.05,299.57,224,274.33Z"/><ellipse class="cls-3" cx="265.87" cy="330.12" rx="9.5" ry="15.13"/><path class="cls-4" d="M222.9,432.63s-107.94-15.43-117.38,0"/><path d="M224.23,427.81c-13.07-1.87-26.2-3.35-39.35-4.57-20.85-1.95-42.49-4-63.38-1.55-7,.83-16,2-20.3,8.41-3.55,5.39,5.1,10.41,8.63,5,.31-.46-.62.47.35-.31-.78.62.09,0,.46-.27a7.6,7.6,0,0,1,2.87-1.23,50.43,50.43,0,0,1,9.5-1.82,204.2,204.2,0,0,1,28.31-.54c19.44.67,38.85,2.56,58.16,4.91,3.13.38,6.26.77,9.39,1.19l.62.08,1.14.16.94.13c6.29.9,9-8.74,2.66-9.64Z"/><path class="cls-4" d="M240.44,466.82s-107.94-4.2-134.92,7"/><path d="M240.44,461.82c-35.91-1.39-72.44-2-108.21,1.73-9.33,1-19.27,1.91-28,5.46-5.89,2.39-3.32,12.06,2.66,9.65,7.23-2.93,15.27-4,23-4.85,11.12-1.26,22.31-1.85,33.49-2.24,21.11-.74,42.25-.64,63.37-.15,4.59.11,9.17.23,13.76.4,6.43.25,6.42-9.75,0-10Z"/><path class="cls-4" d="M260.36,496.37s-126.83,30.85-136.27,21"/><path d="M259,491.55c-14,3.39-28,6.53-42,9.54-23.37,5-47,10.12-70.8,12.51a109.49,109.49,0,0,1-13.54.72,36.94,36.94,0,0,1-3.89-.3c-.55-.08-1.09-.38-1.63-.43.68.06.11-.08.48.28-4.65-4.45-11.73,2.61-7.07,7.07s13.24,3.55,19.11,3.2a315.27,315.27,0,0,0,33.51-4.34c24.19-4.09,48.2-9.27,72.11-14.75,5.47-1.26,11-2.53,16.41-3.86,6.25-1.52,3.6-11.16-2.66-9.64Z"/><path class="cls-5" d="M319.78,530.94s24.29,0,24.29-25.24V455.22C319.78,430,307.64,442.6,307.64,442.6s-8.2,23.9,14.11,27.34"/><path class="cls-2" d="M441.86,234.68s87-112.88,120.76-84.83S549.8,324.43,549.8,324.43s28.41,109.88-28.33,157.05C454,537.57,405.43,593.66,342,593.66"/><path class="cls-2" d="M463.19,210.5S401.38,164.57,342,164.57"/><path class="cls-2" d="M462.1,274s66.79-97.46,78.93-84.84S524.16,306.2,524.16,306.2,485,299.19,462.1,274Z"/><ellipse class="cls-3" cx="420.22" cy="329.74" rx="9.5" ry="15.13"/><path class="cls-4" d="M463.19,432.25s107.93-15.43,117.38,0"/><path d="M464.52,437.07l2.23-.31,7.23-.93q12.63-1.57,25.29-2.79c20-1.91,40.51-3.71,60.63-2.19a61.58,61.58,0,0,1,11.3,1.71,19.8,19.8,0,0,1,3.68,1.3c.51.26,1,.6,1.43.9-.52-.33.12.28-.06,0,3.53,5.35,12.19.35,8.64-5s-10.73-7-16.8-7.94c-9.69-1.46-19.54-1.53-29.31-1.3-20.78.49-41.55,2.52-62.17,5-4.93.59-9.85,1.22-14.75,1.92-6.35.9-3.65,10.54,2.66,9.64Z"/><path class="cls-4" d="M445.65,466.44s107.93-4.2,134.92,7"/><path d="M445.65,471.44c35.27-1.36,71.08-1.88,106.24,1.53,9.12.89,18.78,1.84,27.35,5.31,6,2.41,8.56-7.26,2.66-9.65-7.62-3.08-16.12-4.07-24.21-5-11.21-1.33-22.51-1.95-33.78-2.36-21.49-.78-43-.69-64.5-.19-4.59.11-9.18.23-13.76.4-6.42.25-6.45,10.25,0,10Z"/><path class="cls-4" d="M425.73,496S552.55,526.84,562,517"/><path d="M424.4,500.81c14.9,3.62,29.87,7,44.86,10.15,24.27,5.16,48.88,10.44,73.64,12.54,6.63.56,17.27,2.2,22.63-2.94,4.66-4.46-2.41-11.52-7.07-7.07,0,0,1-.42-.18,0,1.07-.39.35-.18-.27,0a9.25,9.25,0,0,1-3.28.41,86.1,86.1,0,0,1-11.47-.36c-10.93-.9-21.78-2.69-32.57-4.59-23-4.05-45.82-9-68.57-14.23q-7.53-1.72-15.06-3.54c-6.25-1.52-8.92,8.12-2.66,9.64Z"/><path class="cls-5" d="M366.31,530.56s-24.29,0-24.29-25.24V454.84c24.29-25.24,36.43-12.62,36.43-12.62s8.19,23.9-14.12,27.34"/></g></g></svg>