<?xml version="1.0" encoding="utf-8"?>
<!-- Generator: Adobe Illustrator 24.0.0, SVG Export Plug-In . SVG Version: 6.00 Build 0)  -->
<svg version="1.1" id="Layer_1" xmlns="http://www.w3.org/2000/svg" xmlns:xlink="http://www.w3.org/1999/xlink" x="0px" y="0px"
	 viewBox="0 0 688.1 716.9" style="enable-background:new 0 0 688.1 716.9;" xml:space="preserve">
<style type="text/css">
	.st0{fill:#FFFFFF;stroke:#000000;stroke-width:14;stroke-miterlimit:10;}
	.st1{fill:#FF9933;}
	.st2{fill:none;stroke:#000000;stroke-width:14;stroke-miterlimit:10;}
	.st3{fill:#FFFFFF;}
	.st4{fill:#FF9933;stroke:#000000;stroke-width:14;stroke-miterlimit:10;}
	.st5{stroke:#231F20;stroke-linecap:round;stroke-miterlimit:10;}
	.st6{fill:#231F20;stroke:#000000;stroke-linecap:round;stroke-miterlimit:10;}
</style>
<title>Asset 3</title>
<g id="Layer_2_1_">
	<g id="Layer_1-2">
		<ellipse class="st0" cx="344.8" cy="359.6" rx="337.1" ry="351.4"/>
		<path class="st1" d="M243.5,218.7c-6,15.9,3.5,30.2,8.3,44.9c5.3,16.5-3.2,32.6-7.8,48.3c-9.4,32.7-13.3,66.7-11.5,100.7l5.9-6
			c-14-0.1-18.4-16.9-21-27.8c-3.2-13.5-4.8-27.3-4.9-41.1c-0.2-28.1,5.7-55.9,17.4-81.4l-10.9-4.6c-11.6,40.8-23.1,82-25.6,124.6
			c-0.3,4.9,6.9,8.2,10.2,4.2c13.9-16.9,24.1-36.6,30-57.7l-11.5-3.2l-15.4,77.3l10.9-1.4c-8.5-15.8-13.4-33.3-14.2-51.1
			c-0.9-18.9,3.6-36.6,9.1-54.6c5.9-19.2,11.3-38.5,15.7-58.1c2.2-9.8,4.2-19.6,6-29.5c1.1-5.9,0.8-18,8.6-18.9
			c4.7-0.5,9.9,0.6,14.6,1.1c5.4,0.6,10.9,1.2,16.3,1.9c11.6,1.5,23.1,3.4,34.6,5.6l-4.2-4.2c3.1,12.2,1.7,24.7-0.3,36.9
			c-2,11.8-3.9,23.5-4.7,35.5c-1.6,25.5-1.3,50.7-6.5,75.9c-2.5,12.1-5.6,24-8.8,35.9c-3.1,11.5-5.9,23.2-11,34s-12.7,20-17.9,30.7
			c-4.5,9.5-7.3,19.7-8.5,30.1c-2.9,24.9,2.9,50.2,10,74l8.7-6.7c-13.7-8.7-23.9-22-28.8-37.4c-2.5-7.9-3.5-16.1-3-24.3
			c0.5-9.4,2.3-18.6,2.1-28c-0.2-9.7-3.1-18.2-7.4-26.8c-0.8-1.6-1.6-4.3-2.8-5.6l-0.6-1.4l-4.9,2.8c0.5,0.4,0.9,0.9,1.2,1.5
			c0.4,2,2,4.2,2.7,6.3s1.4,4.2,2,6.3c4.7,17.5,3.4,36,4.1,54c0.6,14.4,0.8,41.9,19.6,45.1c4.8,0.8,8-2.6,7.3-7.3
			c-2.8-17.9-5.5-35.8-8.3-53.6c-1.4-8.8-2.9-17.5-4.1-26.3c-0.8-5.9-1.8-12.9,3.4-17l-10.2-4.2c0.2,11.3,0.1,22.6-0.3,33.8
			c-0.2,7,9.6,7.7,11.7,1.6c9.2-27.3,22.2-53.2,38.6-76.9l-10.9-4.6c-10,27.6-29.4,51.1-35.3,80.3l11.4,3.2
			c4.3-31,12.9-61.2,25.4-89.9c2.2-5-2.6-11.7-8.1-8.1c-13.6,8.7-24.6,21.1-31.5,35.7c-2.9,6.2,4,11.5,9.4,7.2
			c11.1-9.1,18.6-21.8,21.2-35.9c0.7-4-2.7-9.1-7.3-7.3c-9.6,3.7-18,9.9-24.2,18.1c-5.8,7.7-11.8,19.3-9.7,29.2
			c2.6,12.5,16.6,14.3,25.7,10c12.3-5.9,23.5-15,35.7-21.2l-8.1-2.1c1.6,2.3,2.5,4.4,1.9,7.2c-1.2,6.4,7.2,10.6,10.9,4.6
			c15.4-25.5,8.8-55,7.3-83c-0.8-15.5,0.9-30.9,3.6-46.2c2.6-14.9,6.7-29.7,7.8-44.8c0.9-12.9-0.8-28.6-10.9-37.8
			c-9.5-8.7-24.8-10.1-37-10.9c-7.6-0.5-15.3-0.3-22.9,0.7c-6.1,0.8-10.8,2.9-13.6,8.5c-6.2,12.3-5.1,28-5.3,41.4
			c-0.6,35.8-3.5,71.4-8.7,106.8h11.5c-3-10.3-1.6-20.8,0.1-31.2c0.8-5.1-5.7-11-9.9-5.8c-10.8,13.2-12.1,29.9-9.4,46.2
			c3,18.6,11.9,35.9,11.6,55c-0.1,6.6,10.2,8.2,11.7,1.6c15.1-68.5,2-141.2,25.4-208.1c1.4-4-3.2-9-7.3-7.3
			c-10.1,3.8-17.8,12-21,22.3c-1.7,5.5,6,10.3,9.9,5.8c8.9-10.3,22-16,35.6-15.5c3.3,0.1,6.6,0.7,9.8,1.7c4.5,1.4,6.3,3.1,6.6,7.8
			c0.7,9-0.9,18.1-2.4,26.9c-3,17.7-4.6,35.6-4.6,53.6c0,9.4,0.2,18.8,0.4,28.2c0.2,8.4,0.9,17.4-0.8,25.7
			c-1.8,9-7.6,15.7-13.3,22.6l-20.7,24.8l9.9,2.6c-7.3-23.5,3.9-46.8,9-69.6c4.3-19.4,5.4-41.6-7.3-58.2c-2.5-3.2-8.1-4.5-10.3,0
			c-9,18.3-14.3,38.1-15.7,58.4c-0.5,7.7,7.2,19.3,8,11.8c2-20.5,8-52.8,10.2-73.2c1.1-9.9,2.2-19.8,3.4-29.7
			c1-8.4,1.8-18.5,7.8-25.1c5.5-6,13.6-6.9,18.7,0.1c5.3,7.3,4,17.4,3.2,25.8c-1.9,18.8-5.2,37.5-9.7,55.9
			c-5.2,21.1-12.1,41.8-20.6,61.8c-2,4.8,2.6,11.9,8.1,8.1c12.5-8.5,20.4-22.4,21.2-37.5c0.2-3.3-2.9-5.8-6-6
			c-10.7-0.6-21.2,2.5-29.9,8.8l8.7,6.7c5.3-20.1,7.7-40.8,7.1-61.5c-0.3-10-1.3-19.9-3-29.8c-1.3-7.4-3.6-15.2-9-20.7
			c-1.3-1.3-2.7-2.4-4.3-3.3c-0.7-0.6-1.6-1-2.5-1.2c-2.2-0.2-1.6,2.5-0.6,3.8s2.8,2,3.9,3.3c1.4,1.6,2.6,3.5,3.6,5.4
			c3.3,6.6,4,14.4,4.3,21.7c0.4,9.5,0.3,18.9,0.8,28.4c0.3,5.1,0.7,10.3,1.1,15.4c0.5,4.9,0.4,10.3,1.9,15s5.1,7.2,9.7,7.7
			c2.6,0.3,3.2-0.8,3.7,1.8c0.3,2.4,0.4,4.9,0.3,7.3c0.2,10.4-0.2,21-5.3,30.3l11.1,3c0.2-35.5,2-71,5.4-106.4
			c0.8-8.3,2-16.6,2.6-24.9c0.4-6,0.1-12.4-2.9-17.8s-9.2-9.8-15.5-8.3c-7.5,1.8-8.4,9.3-7.5,15.8c2.8,20.1,3.4,40.4,1.8,60.6h11.9
			c0.7-17.1,1.6-34.3,2.1-51.5c0.2-6.1-0.7-12.9-6.3-16.5c-5.2-3.3-11.8-1.9-16.3,2c-10.4,9.1-5.5,28.6-3,40.2
			c3.2,14.7,8.7,28.9,16.2,42c2.6,4.6,9.4,3.4,10.9-1.4c1-3.4,4.3-5.5,7.1-7.6c3.1-2.2,6-4.8,8.4-7.7c5.5-7,7.5-15.7,8.7-24.3
			c3-21.2,5.1-42.5,7.6-63.8c0.9-7.6-11-7.5-11.9,0c-2.5,20.7-4.4,41.6-7.4,62.2c-1.2,8-3,16.3-9.4,21.7c-5.9,5-12.2,8.5-14.6,16.3
			l10.8-1.4c-5.4-9.4-9.6-19.4-12.6-29.9c-2.9-10-6-22.1-4.8-32.6c0.4-3.2,4.1-8.8,4.8-2.7c0.6,5.6-0.3,11.7-0.5,17.4l-1.5,37.6
			c-0.3,7.7,11.3,7.5,11.9,0c1.6-18.8,1.2-37.7-1.1-56.4c-0.3-2.1-0.6-4.2-0.9-6.3c-0.1-0.8-0.2-1.5-0.2-2.3
			c-0.9,0.4-0.9,0.8,0.1,1.2c1.6,2.2,2.5,4.7,2.6,7.4c0.6,8-1.2,16.2-2,24.1c-3.8,37.6-5.9,75.4-6.1,113.2c0,5.8,8.2,8.2,11.1,3
			c5.1-9.1,6.8-19.3,7-29.7c0.2-8.3,1.9-22.3-7.3-26.3c-1.8-0.8-4-0.4-5.8-1.1c-2.7-1.1-0.6,0.7-1.5-1.5c-0.5-1.3-0.4-3.4-0.5-4.7
			c-0.6-6.1-1.1-12.2-1.5-18.3c-0.6-10.6-0.4-21.2-1-31.8c-0.5-9-1.8-18.1-5.9-26.3c-3.7-7.5-12.2-17.1-21.6-14.7
			c-3.9,1.1-6.9,4.2-7.7,8.2c-1,5.5,2.5,8.6,7,10.8c8,3.9,9,14.5,10.1,22.4c3.8,26.8,2.2,54.1-4.8,80.3c-1.2,4.6,1,18.7,5.4,15.4
			c6.8-5.2,18.6-16.4,27.2-15.9l-6-6c-0.6,10.9-6.3,21-15.3,27.2l8.1,8.1c17.3-40.8,29.3-84.8,32.4-129.1
			c0.7-10.1-0.4-20.7-7.1-28.8c-5.8-7-14.8-10.4-23.6-7.7c-21.5,6.4-22.3,32.7-24.4,51c-3.1,27-5.8,54.1-8.5,81.2h11.9
			c1.3-18.2,6-36,14.1-52.4h-10.3c12.5,16.3,9.3,38,4.3,56.5c-6,22.3-14.3,45.4-7.1,68.4c1.2,3.9,6.9,6.2,10,2.6l20.7-24.8
			c5.9-7,12-14,15-22.8c3.2-9.3,2.8-19.4,2.6-29c-0.2-10.7-0.5-21.4-0.5-32c-0.1-10.7,0.3-21.3,1.3-31.9c1-10.6,3.3-21,4.7-31.5
			c1.1-8.5,2.8-19.7-1.2-27.7s-13.7-10.3-21.9-11.3c-18.2-2.1-36.2,4.8-48.3,18.6l10,5.8c1.9-6.3,6.5-11.5,12.6-14l-7.3-7.3
			c-23.5,67.1-10.3,139.6-25.5,208.2l11.7,1.6c0.2-17.6-6.4-33.8-10.5-50.6c-3.3-13.7-4.7-30.6,4.8-42.2l-10-5.8
			c-1.9,12.5-3.7,25.1-0.1,37.5c1.5,5.2,10.6,6.1,11.5,0c4.1-27.9,6.9-56,8.3-84.2c0.7-13.5,0.6-27,1.2-40.4
			c0.1-6.3,1-12.6,2.8-18.7c0.8-2.7,1.4-4,4.2-4.5c3.4-0.6,6.8-0.8,10.3-0.9c6.8-0.3,13.6,0,20.3,0.9c6,0.8,12.7,1.8,18,4.8
			c10.9,6.2,10.9,22.2,9.9,33.1c-1.3,13.7-5,27.2-7.4,40.7s-4.1,27.1-4.1,40.8c0.2,27.8,10,59-5.5,84.6l10.9,4.6
			c1.1-5.9,0.4-11.5-3.1-16.4c-1.7-2.8-5.3-3.7-8.1-2.1l-25.7,13c-3.8,1.9-9.6,2.9-13.6,4.6c-3.1,1.3-4.8,4.1-4.6-0.5
			c0.4-13.7,13.6-26.8,25.5-31.5l-7.2-7.3c-2.1,12.1-8.6,23-18.1,30.7l9.4,7.2c5.9-12.9,15.3-23.8,27.1-31.5l-8.1-8.1
			c-13.1,29.5-22.1,60.7-26.6,92.7c-1,7.4,9.9,10.8,11.5,3.2c5.8-29.1,25.3-52.8,35.3-80.3c2.4-6.7-1.6-14.5-5.2-9.3
			c-20.5,22-36,56.2-45.4,84.5l11.7,1.6c0.4-11.3,0.5-22.5,0.3-33.8c-0.1-5.5-6.3-7.3-10.2-4.2c-6,4.8-7.6,12.6-7.4,20
			c0.4,9.1,2.4,18.2,3.8,27.1l9.5,61.4l7.3-7.3c-8.2-1.4-9.1-13.4-9.9-20c-1.2-9.9-1.2-19.9-1.4-29.9c0-9.9-0.6-19.7-1.9-29.5
			c-1.3-9.2-3.5-19.9-8.8-27.8c-2.1-3.1-5.5-5.9-9.4-6c-4.5-0.1-9.6,1.2-9.9,5.8c-0.3,4,3.5,10.2,5.3,13.7
			c2.6,5.2,5.1,10.2,6.3,15.9c2,10.4-0.3,21.2-1.2,31.6c-2.8,30.3,11.7,59.5,37.5,75.6c4.4,2.8,10.2-1.8,8.8-6.7
			c-6.3-21.3-11.5-43.5-10-65.8c0.6-10.6,3.3-21.1,8-30.6c5.5-10.9,16.1-20.6,21.1-31.8c4.6-10.5,4.7-21.3,7.7-32.3
			c3.3-12.2,6.5-24.4,9.1-36.8c5.2-24.6,5.6-49.1,6.9-74.1c0.7-14.2,3-27.9,5.2-41.8c2-13.2,3.1-26.4-0.3-39.6
			c-0.5-2-2.1-3.6-4.2-4.2c-21.3-4-43.2-7.7-64.9-9c-8.7-0.5-16.5,2.6-20.1,11c-3.9,9.1-4.4,20.2-6.3,29.9c-4.4,21.6-9.7,43-16,64.1
			c-6,20.1-12.6,39.8-12.8,61c-0.1,22.3,5.4,44.3,16,64c2.3,4.3,9.9,3.6,10.9-1.4l15.5-77.2c1.5-7.4-9.4-10.6-11.5-3.2
			c-5.3,19.2-14.5,37.1-27,52.5l10.1,4.3c2.5-41.5,13.9-81.6,25.2-121.3c1.8-6.3-8-10.8-10.9-4.6c-13.7,29.5-20.2,61.9-18.9,94.5
			c0.7,15.7,2.9,31.9,7.7,46.9c4.4,13.7,14.1,26.8,29.9,26.9c3.1,0,6.1-2.7,5.9-6c-1.8-33.5,2.2-67.1,11.6-99.3
			c4.4-15,11.6-30,8.9-46.1c-2.5-15-15.9-29.7-10-45.3C257.6,214.7,246.1,211.6,243.5,218.7L243.5,218.7z"/>
		<path class="st1" d="M459.7,401.1c1.5,6.6,11.8,5.1,11.7-1.6c-0.3-19.1,8.6-36.4,11.6-55c2.7-16.3,1.4-33-9.4-46.2
			c-4.2-5.1-10.7,0.7-10,5.8c1.6,10.4,3,21,0.1,31.2h11.5c-4.6-31.5-7.4-63.1-8.4-94.9c-0.5-14.6,0.6-29.8-2.7-44.2
			c-1.2-5.1-2.8-10.9-7.1-14.3c-5.5-4.3-14.3-4-20.9-4.2c-13.6-0.4-29.6,0.5-42,6.7c-11.8,5.9-16.2,18.7-17.3,31
			c-1.3,15,2.8,30,5.7,44.6c3,15.2,5.6,30.6,5.9,46.1c0.6,31.6-10.5,65.4,7.1,94.4c3.6,6,12.1,1.9,10.9-4.6c-0.5-2.8,0.3-5,1.9-7.2
			l-8.1,2.1c12,6.1,23.9,12.3,35.9,18.2c9.2,4.5,22.8,6,25.5-7c2-9.7-3.6-21.1-9.2-28.7c-6.3-8.5-14.8-14.9-24.7-18.7
			c-4.6-1.8-8,3.4-7.3,7.3c2.6,14.1,10.1,26.9,21.2,35.9c5.3,4.3,12.3-0.9,9.4-7.2c-6.9-14.6-17.8-27-31.5-35.7
			c-5.5-3.5-10.3,3.2-8.1,8.1c12.6,28.7,21.2,58.9,25.5,89.9l11.5-3.2c-5.9-29.2-25.3-52.7-35.3-80.3l-10.9,4.6
			c16.4,23.7,29.3,49.6,38.5,76.9c2,6.1,11.9,5.4,11.7-1.6c-0.4-11.3-0.5-22.5-0.3-33.8l-10.2,4.2c5.1,4.1,4.1,11.2,3.4,17
			c-1.2,8.8-2.7,17.6-4.1,26.3c-2.8,17.9-5.5,35.8-8.3,53.6c-0.7,4.7,2.6,8.1,7.3,7.3c16.7-2.8,18.3-25.1,19.2-38.3
			c1.3-17.8-0.3-35.9,2.9-53.5c0.7-4.1,1.7-8.1,3-12c0.7-2.2,1.6-4.3,2.5-6.3c0.5-0.7,0.9-1.5,1.2-2.3l0.8-0.7
			c-2.7-3.7-4.4-4.4-5.2-2.1c-1.2,1.2-1.9,3.9-2.7,5.5c-1.1,2.1-2.1,4.3-3.1,6.5c-1.9,4.3-3.3,8.8-4,13.4c-2.7,18.1,4.1,36.1,0,54.3
			c-4,17.8-14.9,33.4-30.3,43.3l8.7,6.7c6.2-21.2,11.5-43.4,10.6-65.6c-0.3-10.5-2.3-21-5.9-30.8c-4.3-11.3-8.6-22-14.6-32.3
			c-5.8-10-12-19.8-15.1-30.9c-3.3-12.1-6.6-24.1-9.4-36.3c-3-12.4-5.1-25-6.3-37.7c-1-12.3-1.1-24.7-1.6-37
			c-0.6-13.9-2.1-27.8-4.6-41.5c-2.3-13.4-4.4-27.1-0.9-40.6l-4.2,4.2c19.7-3.7,39.5-6.6,59.5-8.4c2.9-0.2,7.2-1,9.7,1
			c2.7,2.1,3,6.9,3.6,10c1.8,9.9,3.6,19.8,5.7,29.6c4.2,19.6,9.3,39.1,15.1,58.3c5.5,18.1,11.4,35.9,11.5,55
			c0.2,20.2-4.8,40.2-14.3,58l10.9,1.4l-15.5-77.3l-11.5,3.2c5.9,21.1,16.1,40.8,30,57.7c3.2,4,10.5,0.7,10.2-4.2
			c-2.5-42.5-14-83.7-25.6-124.5l-10.9,4.6c11.7,25.5,17.7,53.3,17.5,81.4c-0.1,13.8-1.7,27.6-4.9,41.1c-2.6,11-7,27.8-21,27.8l6,6
			c1.8-34-0.3-68.9-9.6-101.6c-4.5-15.7-14.9-30.9-9.6-47.4c4.7-14.7,14.3-29,8.3-44.9c-2.7-7.1-14.2-4-11.5,3.2l0,0
			c5.9,15.5-7.4,30.4-10,45.3c-2.8,16,4.5,31.1,8.9,46.1c7.4,31.8,12.4,62.6,10.7,96.1c-0.2,3.2,3.8,9.2,6.9,9.2
			c15.7-0.1,25.4-13.2,29.9-26.9c4.9-15,7-31.2,7.7-46.9c1.3-32.6-5.1-65-18.9-94.5c-2.9-6.2-12.7-1.8-10.9,4.6
			c11.3,39.8,22.7,79.9,25.2,121.3l10.2-4.2c-12.5-15.4-21.7-33.3-27-52.5c-2.1-7.5-13-4.3-11.5,3.2l15.5,77.3c1,5,8.5,5.8,10.9,1.4
			c9.3-17.4,14.7-36.6,15.8-56.3c1.1-21.2-4.1-41.2-10.4-61.3c-6.5-21-12.1-42.3-16.7-63.9c-2.2-10.4-3.8-21-6-31.4
			c-1.8-8.2-6.3-15.4-15.2-16.8c-5.5-0.9-11.2,0.1-16.7,0.7c-5.7,0.6-11.5,1.3-17.2,2c-12.6,1.7-25.2,3.7-37.7,6
			c-2,0.5-3.6,2.1-4.2,4.2c-6.2,23.9,2.4,47.8,4.3,71.6c2,25.2,1.2,50.3,5.8,75.3c2.2,12.1,5.2,24.1,8.3,36
			c3.1,11.6,0.8,26.9,5,38.1s15.5,17.3,21.7,27.4c5.8,9.2,9.8,19.5,11.6,30.2c4.2,24.8-2.1,50.5-9,74.2c-1.4,4.9,4.4,9.5,8.8,6.7
			c15.2-9.7,26.8-24.1,33-41c3.1-8.3,4.7-17.1,4.8-25.9c0.1-10.8-2.3-21.4-2.2-32.2c0-5.1,0.9-10.2,2.7-15c2-5.3,8.9-15.4,10.9-20.7
			c3.2-8.4-7.9-11.5-16.3-6.2c-7.2,4.6-9.9,16.3-11.6,24c-2.2,9.8-2.9,19.9-3.2,29.9c-0.3,11.4-0.1,22.8-1.2,34.2
			c-0.6,7.1-1.1,21.9-10.2,23.4l7.3,7.3l9.5-61.4c1.4-9,3.5-18.1,3.8-27.1c0.3-7.4-1.4-15.2-7.4-20c-3.9-3.1-12-3.8-12.1,1.7
			c-0.2,11.3,1.8,25,2.2,36.3l11.7-1.6c-9.5-28.3-22.8-55.2-39.8-79.8c-3.6-5.2-14.7-9.6-12.3-2.9c10,27.6,30.9,58.7,36.7,87.8
			c1.5,7.7,12.5,4.2,11.5-3.2c-4.6-32-13.5-63.2-26.6-92.7l-8.1,8.1c11.9,7.7,21.3,18.6,27.2,31.5l9.4-7.2
			c-9.6-7.7-16.1-18.6-18.2-30.6l-7.3,7.3c11.9,4.7,25.1,17.8,25.5,31.5c0.1,4.6-1.4,1.2-4.5-0.1c-4-1.7-9.8-2-13.7-4l-25.7-13
			c-2.9-1.6-6.4-0.6-8.1,2.1c-3.5,5-4.3,10.5-3.1,16.4l10.9-4.6c-13.7-22.7-7.3-50.2-5.8-75c1.7-27.4-4.7-53.7-9.6-80.5
			c-2.2-12-4.3-27.4,2.7-38.3c6.4-9.9,22.9-10.5,33.4-11c6.4-0.4,12.7-0.2,19,0.6c2.9,0.4,4.2,0.5,5.4,3.3c1.3,3.3,2.1,6.8,2.5,10.3
			c1.9,13.3,1,27.1,1.6,40.5c1.2,31.5,4.1,62.9,8.8,94c0.9,6.1,10,5.2,11.5,0c3.6-12.4,1.9-25-0.1-37.5l-10,5.8
			c9.5,11.6,8.1,28.5,4.8,42.2c-4.1,16.8-10.8,33-10.5,50.6l11.7-1.6c-15.2-68.6-2-141-25.4-208.2l-7.3,7.3
			c6.1,2.5,10.8,7.7,12.6,14l10-5.8c-10.7-12.2-26.3-19.2-42.5-19c-7.7,0.1-17.2,1.5-23.4,6.4c-7.4,6-6.9,16.8-6.3,25.4
			c0.8,10.5,3,20.7,4.5,31.1c1.4,10.7,2.2,21.4,2.2,32.2c0.2,10.4-0.1,20.7-0.3,31.1s-0.9,20.8,0.8,31s7.3,18.2,13.8,26.1
			c7.8,9.5,15.8,18.9,23.6,28.3c3,3.6,8.7,1.3,10-2.6c7.1-23-1.1-46.1-7.1-68.4c-5-18.5-8.2-40.2,4.3-56.5h-10.3
			c8,16.4,12.8,34.2,14.1,52.4h11.9c-2.4-24.1-4.8-48.2-7.5-72.3c-1.2-11.1-2-22.5-4.3-33.4c-2.1-9.5-6.6-18.4-15-23.7
			c-7.9-5.2-18.2-4.8-25.6,1c-7.6,5.9-10.8,15.2-11.3,24.6c-0.6,10.8,1.5,21.9,3,32.6c1.6,11,3.6,21.9,6.1,32.8
			c5.7,24.6,13.6,48.6,23.5,71.8l8.1-8.1c-9-6.3-14.6-16.3-15.3-27.2l-6,6c8.6-0.5,17,2,23.9,7.2c4.4,3.2,10-2.1,8.8-6.7
			c-6.1-23.3-8.1-47.6-5.8-71.6c0.8-8.6,1.1-20.9,6.9-27.9c2.6-3.2,6.9-3.5,9.5-6.7c2.8-3.5,2.2-8.6-0.6-11.9
			c-7.1-8.4-18-1.2-23.2,5.5c-5.6,7.2-7.9,16-9,24.8c-1.2,10.1-0.8,20.2-1.2,30.3c-0.2,5.8-0.6,11.6-1,17.4
			c-0.2,2.9-0.1,14.8-2.2,15.8c-2.4,1.1-5.2,0.2-7.8,1.7c-2.1,1.3-3.6,3.3-4.5,5.5c-2,4.9-1.5,11-1.6,16.1
			c-0.1,11.7,1.2,23.4,7,33.8c2.9,5.2,11.1,2.8,11.1-3c-0.2-37.8-2.3-75.6-6.1-113.2c-0.8-7.9-2.6-16.2-2-24.1
			c0.2-2.6,1.1-5.2,2.6-7.4c1-0.4,1-0.8,0.1-1.2l-0.1,1.4c-0.9,1.9-0.7,5.1-1,7.2c-2.4,18.7-2.8,37.6-1.2,56.4
			c0.6,7.5,12.2,7.8,11.9,0l-1.5-36.6c-0.2-5.8-1-11.9-0.6-17.7c0.4-6.6,4.3-1.9,4.8,2c1.2,10.2-1.8,22-4.6,31.8
			c-3,10.7-7.3,21-12.9,30.7l10.9,1.4c-2.3-7.6-8.3-11.1-14-15.9c-6.8-5.6-8.7-13.8-9.9-22.1c-3-20.6-5-41.5-7.4-62.2
			c-0.9-7.5-12.8-7.6-11.9,0c2.5,21.3,4.7,42.6,7.6,63.8c1.1,8.3,3.1,16.8,8.2,23.7c2.4,3,5.2,5.6,8.4,7.9c2.9,2.2,6.5,4.4,7.6,8
			c1.5,4.8,8.3,6,10.9,1.4c7.5-13.1,13-27.2,16.2-42c2.5-11.6,7.4-31.1-3-40.2c-4.5-3.9-11.1-5.2-16.3-1.9
			c-5.6,3.5-6.5,10.4-6.3,16.5c0.4,17.2,1.4,34.3,2.1,51.5h11.9c-1.5-17.5-1.3-35.1,0.7-52.6c0.8-6.6,3.8-15.6-1.5-21.1
			c-5-5.1-12.7-3.1-17.4,1.4c-9.9,9.7-5.4,27-4.1,39c1.8,17.7,3.2,35.4,4.2,53.1c1.2,20.4,1.8,40.7,1.9,61.1l11.1-3
			c-4.5-8-5.4-17.1-5.4-26.1c0-2.2,0-4.4,0.1-6.6c0-1.4-0.4-4.9,0.4-6.1c0.5-0.8,2.1-0.3,3.5-0.5c2.5-0.2,4.8-1.1,6.7-2.8
			c3.2-2.9,3.5-7.3,4-11.3c0.6-5.1,1.1-10.3,1.5-15.4c0.8-10.2,1.1-20.4,1.2-30.6c0.1-7.8,0.4-15.7,2.6-23.3
			c0.9-3.4,2.5-6.6,4.6-9.4c1-1.3,2.1-2.4,3.4-3.4c1.8-1.3,2.2-0.5,1.8-3.1s-1.1-1.7-2.9-0.7c-15.1,8.3-15.5,31.7-16.5,46.6
			c-1.5,23.2,0.8,46.6,6.7,69.1l8.7-6.7c-8.6-6.3-19.2-9.4-29.9-8.8c-3.1,0.2-6.1,2.6-6,6c0.8,15.1,8.6,29,21.2,37.5
			c5.5,3.8,10.2-3.3,8.1-8.1c-15-35.2-25-72.4-29.6-110.4c-1.1-8.9-3.1-19.3-0.2-28.1c2.4-7.1,9-12.7,16.5-8.9
			c7.9,4,10.3,13.5,11.6,21.6c1.5,9.6,2.4,19.4,3.5,29c2.6,23.1,4.9,46.2,7.2,69.3c0.7,7.5,12.4,7.7,11.9,0
			c-1.4-20.3-6.7-40.1-15.7-58.4c-2.2-4.5-7.8-3.2-10.3,0c-12.7,16.6-11.6,38.8-7.3,58.2c5,22.7,16.3,46.1,9,69.6l10-2.6l-17.6-21.1
			c-5.1-6.1-11.1-12.2-14.4-19.6c-3.5-8-3-17.1-2.9-25.6c0.1-9.1,0.4-18.1,0.5-27.2c0.2-18-0.4-35.9-3.2-53.7
			c-1.5-9.3-3.4-18.5-3.7-28c-0.1-3.3-0.7-7.9,1-10.9s6.7-3.9,9.9-4.5c15.2-2.9,31.1,3.2,41.2,14.8c3.9,4.5,11.7-0.3,10-5.8
			c-3.2-10.3-10.9-18.5-21-22.3c-4.1-1.6-8.7,3.3-7.3,7.3"/>
		<path class="st2" d="M349,175.4c0,0-14.1,0.2-23.4-0.1c-14.4-0.6-46.5-10.1-69.3-7.6s-38.9-20.3-52.4-24.5s-91.2,32.9-97.1,54.1
			s31.2,9.3,53.2-5.2s46.5-22.7,57.4-16.8s-20.3,97.1-27.9,141.1s5.9,76,19.4,95.4s15.2,35.5,11.8,45.6s-9.3,32.9,13.5,64.2
			s46.5,29.6,81.1,26.2s29.3-52.4,29.3-52.4s-18.3-17.7-10.7-31.2s-5.9-16.9-8.5-12.7s-7.6,18.6-13.5,14.4s-14.3-39.7,33-39.7"/>
		<path class="st3" d="M412.8,282.5c28.8,36.2,50.5-12.1,47.2-33s-8.7-64.8-23.3-56S377.8,238.2,412.8,282.5z"/>
		<path class="st2" d="M345.1,175.5c0,0,11,0.2,19.5-0.1c14.4-0.6,46.5-10.1,69.3-7.6s38.9-20.3,52.4-24.5s91.2,32.9,97.1,54.1
			s-31.2,9.3-53.2-5.2c-22-14.5-46.5-22.7-57.4-16.8s20.3,97.1,27.9,141.1s-5.9,76-19.4,95.5s-15.2,35.5-11.8,45.6
			s9.3,32.9-13.5,64.2s-46.5,29.6-81.1,26.2s-29.3-52.4-29.3-52.4s18.3-17.7,10.7-31.2s5.9-16.9,8.5-12.7s7.6,18.6,13.5,14.4
			s14.3-39.7-33-39.7"/>
		<path class="st2" d="M314.7,175.3c0,0,9.2,63.6,1.2,98.5c-0.8,3.6-1.2,7.3-1.1,11c1.5,47.3,10.8,45.3,10.8,58
			c0,13.2-0.9,39.4-27,62.2s-44.8,55.8-36.3,93.8c8.5,38,18.6,52.4,18.6,52.4"/>
		<path class="st2" d="M301.2,549c0,0,9.3,33,43.9,33"/>
		<path class="st4" d="M160.1,192.1c0,0,24,22.3,13.6,39c-21.1,33.8,5,71.8,16,85.3"/>
		<circle class="st5" cx="278.5" cy="346.2" r="18.2"/>
		<path class="st2" d="M375.5,175.3c0,0-9.1,62.8-1.4,97.9c0.9,4.1,1.3,8.3,1.2,12.6c-1.6,46.4-10.8,44.4-10.8,57
			c0,13.2,0.8,39.4,27,62.2s44.8,55.8,36.3,93.8c-8.4,38-18.6,52.4-18.6,52.4"/>
		<path class="st2" d="M389,549.1c-0.3,0-11.5,33-43.9,32.9"/>
		<path class="st4" d="M530.1,192.1c0,0-24.1,22.3-13.6,39c21.1,33.8-5,71.8-16,85.3"/>
		<circle class="st6" cx="411.8" cy="346.2" r="18.2"/>
	</g>
</g>
</svg>
