<?xml version="1.0" encoding="utf-8"?>
<!-- Generator: Adobe Illustrator 24.0.0, SVG Export Plug-In . SVG Version: 6.00 Build 0)  -->
<svg version="1.1" id="Layer_1" xmlns="http://www.w3.org/2000/svg" xmlns:xlink="http://www.w3.org/1999/xlink" x="0px" y="0px"
	 viewBox="0 0 688.1 716.9" style="enable-background:new 0 0 688.1 716.9;" xml:space="preserve">
<style type="text/css">
	.st0{fill:#FFFFFF;stroke:#000000;stroke-width:14;stroke-miterlimit:10;}
	.st1{fill:none;stroke:#000000;stroke-width:14;stroke-miterlimit:10;}
	.st2{fill:none;stroke:#000000;stroke-width:4;stroke-miterlimit:10;}
	.st3{stroke:#000000;stroke-width:4;stroke-miterlimit:10;}
</style>
<title>Asset 3</title>
<g id="Layer_2_1_">
	<g id="Layer_1-2">
		<ellipse class="st0" cx="344.8" cy="359.6" rx="337.1" ry="351.4"/>
	</g>
</g>
<rect x="106.2" y="143" class="st1" width="477.9" height="439"/>
<g id="_x37_EMPrS_1_">
	
		<image style="overflow:visible;" width="475" height="475" id="_x37_EMPrS_2_" xlink:href="B3B64B3C89E347BF.png"  transform="matrix(1 0 0 1 106.55 142.9717)">
	</image>
</g>
<path class="st2" d="M344,437c-41,0-48,11-85,6c-35.5-4.8-58.1-34.4-59-75.3c-0.1-3.6,0.4-7.2,1.4-10.7
	c3.2-11.9,12.3-40.3,28.6-55.1c21-19,37-46,38-60s2.1-55,76-57"/>
<path class="st3" d="M283,274c-11.2,2.2-12.4,15.3-11,24c1.4,8.7,11.9,6.3,13.7,4.6c1.5-1.4,3.8-10.3,2.7-18.6
	C287.2,275.8,287.1,273.2,283,274z"/>
<path class="st2" d="M345.1,437c41,0,48,11,85,6c35.5-4.8,58.1-34.4,59-75.3c0.1-3.6-0.4-7.2-1.4-10.7
	c-3.2-11.9-12.3-40.3-28.6-55.1c-21-19-37-46-38-60s-2.1-55-76-57"/>
<path class="st3" d="M400.2,277.5c11.2,2.2,12.4,15.3,11,24c-1.4,8.7-11.9,6.3-13.7,4.6c-1.5-1.4-3.8-10.3-2.7-18.6
	C396,279.3,396.1,276.7,400.2,277.5z"/>
<path class="st2" d="M403.1,201.6c0,0,12.7-9,31.3,8.5c18.6,17.5,27,29.8,25.9,43.9c-1.1,14.1-0.6,31.4,5.6,35.1s-6.7,12.9-6.7,12.9
	"/>
<path class="st2" d="M308.2,440.3c8.8-1.6,6.8-33.2,7.9-40.5c1.1-7.3-5.6-17.5-36-13.5s-27.1-18-21.4-39.4c5.6-21.4,31-22,45.6-48.4
	c14.6-26.5-18.6-99.2-18.6-99.2"/>
</svg>
